# xmcd
#
# Track frame offsets:
#	182
#	15530
#	26717
#	44527
#	61330
#	75885
#	92272
#	110227
#	126987
#	145022
#	161500
#	184080
#	198672
#	217505
#	233005
#	250435
#	267185
#	281372
#
# Disc length: 3946 seconds
#
# Revision: 1
# Processed by: cddbd v1.5.1PL0 Copyright (c) Steve Scherf et al.
# Submitted via: audiograbber 1.83.01
#
DISCID=ef0f6812
DTITLE=Dennie Christian - 15 jaar
DYEAR=1900
DGENRE=Oldies
TTITLE0=Ik wil met je dansen
TTITLE1=Samen Dansen
TTITLE2=Onze Liefde
TTITLE3=Nederlands zingen
TTITLE4=Krik Krak
TTITLE5=Afscheid
TTITLE6=En daarom ben ik vanavond hier
TTITLE7=Kom maar in mijn armen schat
TTITLE8=Bij jou vind ik de liefde
TTITLE9=Pas op je tellen vrijgezel
TTITLE10=De oude dame, de zanger en de vogels
TTITLE11=Denk nergens aan
TTITLE12=Blijf toch vanacht bij mij
TTITLE13=Morgen dan zien we wel weer
TTITLE14=De kinderen van het nieuwe europa
TTITLE15=Ik weet dat wij elkaar beslist weer zien
TTITLE16=Alle meisjes willen...
TTITLE17=Zoals wind bij de golven
EXTD=
EXTT0=
EXTT1=
EXTT2=
EXTT3=
EXTT4=
EXTT5=
EXTT6=
EXTT7=
EXTT8=
EXTT9=
EXTT10=
EXTT11=
EXTT12=
EXTT13=
EXTT14=
EXTT15=
EXTT16=
EXTT17=
PLAYORDER=
